<svg xmlns="http://www.w3.org/2000/svg" width="17" height="17" viewBox="0 0 17 17">
    <path fill="#1E201F" fill-rule="evenodd" d="M7.477 1.309c.364-.763 1.55-.71 1.856.077.643 1.34 1.224 2.72 1.848 4.072 1.435.202 2.875.357 4.308.577.787.071 1.194 1.223.632 1.81-1.035 1.093-2.144 2.108-3.208 3.17.255 1.48.556 2.95.799 4.431.2.848-.779 1.637-1.502 1.19-1.295-.692-2.547-1.466-3.83-2.181-1.23.7-2.449 1.425-3.684 2.113-.517.37-1.307.161-1.562-.446-.19-.392-.05-.83.007-1.234.243-1.29.479-2.58.715-3.87-1.04-1.03-2.104-2.032-3.132-3.076-.426-.39-.459-1.136-.067-1.563.302-.376.805-.364 1.228-.439 1.236-.154 2.47-.321 3.702-.48.638-1.382 1.22-2.79 1.89-4.151z"/>
</svg>
